<svg width="27" height="28" viewBox="0 0 27 28" fill="none" xmlns="http://www.w3.org/2000/svg">
<path d="M18.2779 9.0545C19.5412 10.3669 20.2508 12.1456 20.2508 14C20.2508 15.8544 19.5412 17.6331 18.2779 18.9455" stroke="#00BC7D" stroke-width="2" stroke-linecap="round" stroke-linejoin="round"/>
<path d="M21.4594 5.75517C23.5664 7.9427 24.7498 10.9081 24.7498 14C24.7498 17.0919 23.5664 20.0573 21.4594 22.2448" stroke="#00BC7D" stroke-width="2" stroke-linecap="round" stroke-linejoin="round"/>
<path d="M5.54063 22.2448C3.43364 20.0573 2.25015 17.0919 2.25015 14C2.25015 10.9081 3.43364 7.9427 5.54063 5.75517" stroke="#00BC7D" stroke-width="2" stroke-linecap="round" stroke-linejoin="round"/>
<path d="M8.72212 18.9455C7.45876 17.6331 6.74919 15.8544 6.74919 14C6.74919 12.1456 7.45876 10.3669 8.72212 9.0545" stroke="#00BC7D" stroke-width="2" stroke-linecap="round" stroke-linejoin="round"/>
<path d="M13.5 16.3333C14.7426 16.3333 15.75 15.2887 15.75 14C15.75 12.7113 14.7426 11.6667 13.5 11.6667C12.2574 11.6667 11.25 12.7113 11.25 14C11.25 15.2887 12.2574 16.3333 13.5 16.3333Z" stroke="#00BC7D" stroke-width="2" stroke-linecap="round" stroke-linejoin="round"/>
</svg>
